<?xml version="1.0" standalone="no"?>
<!DOCTYPE svg PUBLIC "-//W3C//DTD SVG 20010904//EN"
 "http://www.w3.org/TR/2001/REC-SVG-20010904/DTD/svg10.dtd">
<svg version="1.0" xmlns="http://www.w3.org/2000/svg"
 width="586.000000pt" height="586.000000pt" viewBox="0 0 586.000000 586.000000"
 preserveAspectRatio="xMidYMid meet">
<metadata>
Created by potrace 1.14, written by Peter Selinger 2001-2017
</metadata>
<g transform="translate(0.000000,586.000000) scale(0.100000,-0.100000)"
fill="#000000" stroke="none">
<path d="M1698 5485 c-3 -3 -204 -6 -448 -6 -329 -1 -453 -5 -485 -15 -24 -7
-45 -10 -48 -8 -2 3 -15 0 -28 -5 -36 -14 -63 -24 -75 -26 -25 -6 -163 -83
-157 -89 3 -3 1 -6 -6 -6 -22 0 -180 -170 -206 -222 -14 -27 -25 -56 -25 -63
0 -7 -5 -15 -11 -17 -6 -2 -12 -13 -13 -23 -2 -11 -8 -33 -14 -48 -7 -15 -14
-45 -17 -65 -2 -20 -8 -48 -12 -62 -9 -32 -14 -2620 -5 -2634 7 -12 10 -26 17
-76 6 -47 10 -60 24 -93 6 -16 9 -32 7 -36 -3 -4 3 -15 12 -24 25 -23 44 -47
37 -47 -3 0 2 -11 11 -25 9 -14 21 -22 27 -18 5 3 7 1 4 -5 -6 -9 63 -101 95
-127 7 -6 31 -25 53 -42 61 -49 188 -111 272 -133 71 -19 111 -20 639 -21 602
-1 573 1 564 -44 -1 -5 -2 -18 -3 -27 -1 -10 -5 -18 -9 -18 -4 0 -7 -3 -7 -7
1 -5 0 -10 -1 -13 -1 -3 -3 -12 -5 -20 -2 -8 -11 -35 -20 -60 -9 -24 -14 -52
-12 -62 3 -10 1 -16 -4 -12 -5 3 -9 -3 -9 -14 0 -10 -3 -22 -7 -26 -4 -3 -8
-13 -9 -21 -1 -8 -9 -34 -17 -57 -32 -95 -48 -146 -53 -173 -3 -15 -9 -35 -13
-44 -5 -9 -10 -20 -10 -26 -1 -5 -6 -28 -12 -50 -6 -22 -11 -42 -11 -45 0 -3
-4 -11 -10 -17 -6 -7 -8 -20 -4 -28 3 -8 2 -15 -3 -15 -10 0 -32 -71 -25 -82
3 -4 0 -8 -7 -8 -7 0 -10 -3 -7 -6 4 -3 0 -21 -8 -40 -8 -19 -11 -34 -8 -34 4
0 2 -6 -3 -13 -9 -10 -24 -57 -27 -79 -1 -3 -4 -10 -8 -14 -4 -4 -3 -13 3 -20
9 -11 16 -11 33 -2 11 7 25 11 29 10 4 -1 10 5 13 13 3 8 10 12 15 9 5 -3 9 0
9 5 0 6 3 10 8 9 4 -1 38 18 77 43 38 24 70 42 70 39 0 -3 23 11 50 30 28 19
75 48 105 64 30 16 57 32 60 36 3 4 20 13 38 21 17 8 32 18 32 22 0 5 5 5 10
2 6 -3 10 -2 10 3 0 5 8 12 18 15 16 6 59 30 137 78 17 10 49 29 73 41 23 12
42 26 42 30 0 4 8 8 17 8 9 0 24 6 32 14 9 8 39 26 66 42 28 15 64 36 80 46
17 10 49 28 72 40 23 12 39 26 36 31 -3 6 -2 7 4 4 5 -3 50 18 100 47 49 30
100 57 111 61 12 3 22 10 22 15 0 5 10 12 23 17 12 4 48 24 80 43 32 19 82 49
112 65 130 73 205 119 205 127 0 5 5 6 10 3 6 -3 10 -1 10 4 0 6 3 10 8 9 4
-1 21 5 37 13 25 12 151 14 730 16 937 2 923 2 995 30 8 3 23 8 32 9 25 5 133
57 136 66 2 4 8 8 14 8 8 0 47 29 126 95 29 24 102 120 102 134 0 5 16 33 36
62 85 127 86 131 87 1584 1 1099 -2 1305 -22 1373 -5 17 -7 32 -4 32 3 0 0 7
-7 15 -7 8 -10 15 -7 15 7 0 -14 52 -50 128 -44 90 -256 292 -308 292 -8 0
-15 5 -15 10 0 6 -4 10 -9 10 -5 0 -26 8 -47 17 -22 9 -42 18 -46 19 -5 1 -9
3 -10 4 -2 1 -16 3 -33 4 -16 1 -34 4 -40 8 -23 14 -257 22 -475 17 -8 0 -46
1 -85 1 -38 1 -164 1 -280 1 -430 -2 -1551 -3 -1575 -1 -14 1 -32 2 -40 2
-261 -3 -943 -1 -949 3 -5 2 -10 2 -13 0z"/>
</g>
</svg>
